<?xml version="1.0" encoding="UTF-8" standalone="no"?>
<!-- Created with Inkscape (http://www.inkscape.org/) -->

<svg
   xmlns:dc="http://purl.org/dc/elements/1.1/"
   xmlns:cc="http://creativecommons.org/ns#"
   xmlns:rdf="http://www.w3.org/1999/02/22-rdf-syntax-ns#"
   xmlns:svg="http://www.w3.org/2000/svg"
   xmlns="http://www.w3.org/2000/svg"
   xmlns:inkscape="http://www.inkscape.org/namespaces/inkscape"
   version="1.1"
   id="svg2"
   xml:space="preserve"><metadata
     id="metadata8"><rdf:RDF><cc:Work
         rdf:about=""><dc:format>image/svg+xml</dc:format><dc:type
           rdf:resource="http://purl.org/dc/dcmitype/StillImage" /></cc:Work></rdf:RDF></metadata><defs
     id="defs6" /><g
     transform="matrix(1.25,0,0,-1.25,0,450.65)"
     id="g10"><g
       transform="scale(0.1,0.1)"
       id="g12"><path
         d="m 4652.7,2516.99 c -6.51,1.33 -13.02,2.66 -19.53,3.99 -41.45,-89.5 -82.91,-179 -127.98,-276.3 66.53,23.22 112.91,39.4 159.43,55.64 -3.69,67.04 -7.8,141.85 -11.92,216.67 z m -509.6,-379.05 c -1.74,-8.68 -3.48,-17.37 -5.22,-26.05 65.73,-25.17 131.47,-50.34 203.91,-78.08 -4.13,64.79 -7.2,113.03 -10.68,167.59 -94.55,83.65 -121.75,-48.09 -188.01,-63.46 z m -1597.06,145.89 c -4.63,72.5 -10.05,157.53 -15.48,242.56 -6.18,0.97 -12.36,1.93 -18.54,2.9 -44.71,-100.56 -89.42,-201.12 -137.73,-309.78 66.47,24.89 113.97,42.68 171.75,64.32 z m 727,-623.96 c -64.62,32.57 -82.14,152.99 -176.33,89.11 -54.83,-37.18 -110.68,-72.87 -166.06,-109.22 5.76,-12.08 11.52,-24.15 17.28,-36.22 108.37,18.78 216.74,37.56 325.11,56.33 z m -695.02,469.62 c 4.95,-9.31 9.9,-18.62 14.85,-27.94 93.81,25.9 187.62,51.81 281.42,77.71 1.34,9.15 2.67,18.3 4,27.45 -52.29,28.24 -102.37,74.15 -157.34,81.05 -114.09,14.33 -76.19,-119.96 -142.93,-158.27 z m 1667.23,-740.35 c 100.15,47.6 194.34,110.33 296.54,21.06 16.67,32.01 32.8,62.98 50.32,96.62 -82.04,17.35 -157.17,33.24 -247.8,52.4 -99.65,-59.91 -111.09,-76.23 -99.06,-170.08 z m 127.65,1289.04 c -6.59,-1.36 -13.18,-2.73 -19.77,-4.09 -17.32,85.83 -34.64,171.67 -51.96,257.5 -6.16,0.68 -12.32,1.36 -18.48,2.04 -39.52,-97.09 -79.05,-194.17 -111.64,-274.24 54.03,-17.5 112.8,-36.52 171.11,-55.4 6.89,16.63 18.81,45.41 30.74,74.19 z m 241.07,-438.38 c -13.16,2.39 -26.33,4.78 -39.49,7.17 -46.28,-72.98 -92.55,-145.96 -130.27,-205.44 53.02,-39.95 88.78,-66.9 126.77,-95.53 30.52,21.8 62.09,44.35 92.04,65.75 -17.6,81.83 -33.32,154.94 -49.05,228.05 z M 3377.74,895.43 c -14.58,3.519 -29.16,7.031 -43.74,10.539 -67.05,-249.68 -95.37,-507.168 -142.14,-760.938 17.45,-3.652 34.9,-7.312 52.36,-10.972 51.26,252.363 95,506.312 133.52,761.371 z m -90.91,-0.649 c -7.43,4.418 -14.86,8.84 -22.3,13.25 -14.73,-17.101 -39.21,-32.422 -42.7,-51.57 C 3178.8,620.512 3138.84,384 3098.09,147.641 c 8.65,-5.403 17.31,-10.801 25.96,-16.2 14,21.27 35.58,40.879 40.65,64.11 19.56,89.539 34.44,180.14 49.96,270.539 24.52,142.82 48.16,285.789 72.17,428.691 z M 3007.54,134.602 c 20.22,5.238 43.53,6.617 44.6,12.238 47.64,249.551 93.33,499.469 140.91,758.379 -71.1,-23.578 -181.39,-521.399 -185.51,-770.617 z M 2786.08,2631.96 c 89.85,55.9 171.02,121.95 271.75,57.65 -22.43,106.11 -43.28,204.71 -64.12,303.31 -8.11,1.64 -16.22,3.29 -24.33,4.93 -23.78,-46.56 -46.65,-93.61 -71.69,-139.47 -12.79,-23.43 -24.62,-52.37 -45.32,-65.56 -57.61,-36.67 -86.76,-81.79 -66.29,-160.86 z M 3394.94,149.859 c 9.76,-6.339 19.51,-12.679 29.26,-19.019 12.47,20.449 31.23,39.48 36.28,61.621 17.89,78.437 31.62,157.84 45.97,237.051 29.44,162.609 58.26,325.34 87.33,488.008 -9.54,4.812 -19.09,9.621 -28.64,14.429 -16.38,-23.027 -42.99,-44.211 -47.56,-69.379 -43.03,-237.179 -82.29,-475.05 -122.64,-712.711 z m 770.24,72.153 c 27.98,18.328 50.98,25.16 52.97,35.886 63.19,340.684 124.34,681.743 185.79,1022.742 -12.34,4.25 -24.69,8.5 -37.03,12.75 -13.17,-32.29 -32.47,-63.48 -38.52,-97.06 -36.73,-203.818 -70.8,-408.119 -105.01,-612.389 -19.32,-115.382 -37.2,-231 -58.2,-361.929 z m -451.74,-71.313 c 27.75,7.172 50.78,8.563 51.79,14.031 67.64,365.571 133.51,731.469 199.53,1097.34 -11.12,5.05 -22.24,10.1 -33.35,15.15 -13.38,-25.22 -34.08,-49.1 -38.99,-75.87 -40.93,-223.178 -79.5,-446.811 -117.66,-670.498 -21.02,-123.243 -39.89,-246.84 -61.32,-380.153 z M 2186.22,1298.82 c -34.57,-13.22 -56.8,-16.16 -58.07,-23 C 2058.2,898.699 1990,521.25 1921.63,143.84 c 11.8,-4.41 23.6,-8.828 35.4,-13.25 11.24,21.629 28.52,42.129 32.78,65.051 41.48,223.379 80.94,447.14 120.64,670.847 24.43,137.662 48.29,275.432 75.77,432.332 z m 54.97,-1167.73 c 29.76,8.601 52.93,10.379 54.06,16.32 71.59,378.422 141.38,757.192 211.33,1135.92 -11.99,4.38 -23.98,8.75 -35.97,13.13 -11.68,-21.82 -29.66,-42.44 -34.05,-65.64 -35.77,-188.95 -69.4,-378.32 -102.9,-567.699 -30.36,-171.652 -59.74,-343.473 -92.47,-532.031 z m 365,1143.32 c -9.69,6.47 -19.38,12.93 -29.07,19.39 -12.53,-21.98 -32.11,-42.65 -36.5,-66.15 -47.01,-251.9 -92.03,-504.17 -136.71,-756.502 -19.34,-109.187 -36.62,-218.738 -54.83,-328.128 10.3,-4.282 20.61,-8.559 30.91,-12.84 13.02,24.082 33.35,46.859 37.94,72.449 64.02,357.043 125.88,714.461 188.26,1071.781 z m 413.77,1199.55 c 9.55,2.1 33.6,7.37 77.16,16.93 -45.87,49.89 -85.25,89.21 -120.37,132.02 -30.51,37.19 -57.56,38.36 -94.78,8.96 -87.2,-68.91 -176.36,-135.2 -203.57,-258.57 37.46,8.2 81.44,32.43 101.62,19.51 59,-37.8 107.56,-91.57 162.18,-136.69 24.04,-19.86 52.83,-33.96 92.39,-58.79 0,58.59 0,91.3 0,141.8 50.87,-22.62 89.54,-39.82 128.2,-57.01 5.11,4.49 10.22,8.98 15.33,13.47 -52.53,59.25 -105.07,118.5 -158.16,178.37 z M 4664.04,550.629 c 238.86,195.453 251.74,466.381 287.92,733.891 -60.6,0 -108.39,0 -160.42,0 -43.03,-247.66 -85.27,-490.782 -127.5,-733.891 z M 2772.6,147.98 c 157.63,-33.82 164.36,-29.148 188.31,111.461 13.51,79.289 29.8,158.11 43.46,237.368 22.73,131.941 44.36,264.07 67.36,401.562 -48.53,3.918 -85.14,6.867 -125.07,10.098 -3.51,22.152 -6.89,43.41 -10.26,64.679 -3.32,0.184 -6.63,0.372 -9.95,0.551 -51.3,-275.328 -102.6,-550.668 -153.85,-825.719 z m 1057.14,926.42 c -51.87,-39.22 -88.3,-77.572 -132.95,-97.63 -49.3,-22.149 -65.99,-54.418 -73.46,-103.348 -24.71,-161.883 -52.71,-323.262 -79.2,-484.871 -13.14,-80.172 -25.75,-160.422 -39.2,-244.403 63.68,0 111.87,0 167.62,0 51.94,307.372 103.49,612.434 157.19,930.252 z m 900.41,211.28 c -29.96,1.97 -47.09,1.6 -63.67,4.44 -80.93,13.84 -118.02,-14.17 -125.54,-101.6 -9.33,-108.55 -36.33,-215.532 -54.55,-323.379 -29.03,-171.86 -57.11,-343.879 -87.6,-527.891 113.9,51.719 199.47,94.309 214.35,231.34 25.73,236.91 75.53,471.21 117.01,717.09 z M 3945.53,184.48 c 155.82,8.129 167.9,15.801 186.81,125.02 36.71,212.148 72.35,424.48 108.33,636.75 18.9,111.51 37.6,223.05 59.09,350.65 -72.09,-29.42 -161.04,46.74 -180.73,-69.19 C 4060.39,882.59 4004,537.082 3945.53,184.48 z m -1232.6,1171.27 c 14.22,-60.27 37.25,-103.52 31.41,-142.44 -26.42,-176.09 -61.44,-350.869 -92.53,-526.279 -31.91,-179.992 -62.84,-360.152 -94.15,-539.929 152.68,-30.172 156.12,-28.821 182.45,109.437 25.81,135.473 49.75,271.301 73.63,407.121 36.09,205.379 71.43,410.89 107.93,621.24 -39.64,2.91 -70.35,5.16 -103.94,7.63 42.59,14.97 82.45,29.79 122.83,43.01 90.81,29.73 90.92,29.41 30.49,117.02 -86.98,-32.62 -176.18,-66.08 -258.12,-96.81 z M 2031.65,132.211 c 77.63,16.129 160.37,-41.9219 179.44,72.801 39.59,238.207 78.22,476.718 125.59,713.437 33.41,166.921 25.8,345.831 137.31,498.191 -89.1,17.37 -173.63,33.84 -278.46,54.28 -46.51,-31.28 -124.94,-69.98 -116.45,-189.18 78.95,52.52 153.22,77.91 239.98,76.17 55.9,-1.13 75.16,-7.54 59.58,-64.22 -49.03,-3.21 -96.6,-6.33 -143.85,-9.43 C 2166.91,899.32 2100.69,523.75 2031.65,132.211 z M 3200.72,2168.52 c 152.6,0 293.79,-5.61 434.23,2.24 75.78,4.24 153.62,22.87 224.56,50.39 108.86,42.24 175.18,182.53 154.72,300.61 -14.02,80.95 -96.44,144.74 -208.46,149.6 -155.5,6.75 -311.34,8.96 -466.93,6.74 -22.83,-0.33 -60.86,-32.82 -65.16,-55.49 -27.84,-146.64 -48.26,-294.67 -72.96,-454.09 z M 2986.57,956.039 c 194.64,0 373.17,-2.379 551.56,1.781 41.36,0.961 84.08,20.149 122.94,38 114.95,52.78 181.3,185.15 162.68,316.7 -11.16,78.87 -99.13,150.54 -222.21,160.44 -157.97,12.71 -316.94,14.08 -475.53,16.55 -19.54,0.3 -54.12,-19.93 -56.93,-35.2 -30.04,-163.48 -55.09,-327.87 -82.51,-498.271 z M 2393.78,1759.8 c -15.6,40.69 -31.21,81.39 -46.81,122.08 -11.97,1.29 -23.94,2.58 -35.92,3.86 -30.94,-57.96 -61.89,-115.92 -92.83,-173.88 4.43,-5.04 8.85,-10.09 13.28,-15.13 46.24,18.95 92.49,37.91 138.73,56.86 1.24,-52.81 -25.31,-105.54 -72.94,-100.63 -109.54,11.3 -132.98,-63.42 -174.76,-138.82 101.56,30.35 193.95,56.86 281.82,-5.81 48.92,-15.34 97.85,-30.68 167.5,-52.52 -8.33,74.16 -11.14,140.27 -24.3,204.24 -12.25,59.53 29.04,100.17 63.6,85.85 116.41,-48.22 260.75,83.02 348.61,-67.65 20.48,36.23 29.87,68.26 50.94,87.46 90.28,82.25 188.83,56.58 280.19,5 60.67,-34.25 112.38,-84.38 164.14,-124.36 -116.03,-28.17 -222.02,-54.86 -328.6,-78.88 -18.56,-4.18 -40.66,-0.46 -59.4,5.27 -126.44,38.62 -208.01,-37.83 -292.61,-112.5 278.69,85.84 563.22,73.98 827.85,58.92 6.67,53.77 -3.17,117.61 21.72,137.11 28.03,21.95 87.36,3.95 133.08,3.33 -11.8,-51.46 26.44,-57.06 55.5,-46.71 25.28,9 42.99,39.23 65.78,61.8 14.79,-19.47 33.13,-43.62 55.23,-72.73 31.88,29.96 59.16,55.6 92.62,87.06 2.07,-34.65 3.48,-58.16 5.53,-92.5 45.61,14.5 102.07,15.33 116.8,40.54 35.25,60.34 56.13,30.63 92.25,6.88 30.01,-19.73 68.05,-34.52 103.49,-36.82 40.86,-2.66 85.96,23.71 123.49,14.41 65.78,-16.31 127.19,-50.21 208.58,-84.35 0,103.66 0,195.53 0,282.86 -79.68,-34.43 -149.18,-66.79 -220.43,-94.67 -95.65,-37.44 -137.09,68.7 -207.33,83.24 -124.5,-82.22 -253.53,-36.98 -384.37,-34.94 86.9,93.63 177.44,32.73 264.53,16.16 5.14,30.35 9.59,56.65 13.36,78.92 23.32,-7.78 45.09,-22.92 55.51,-17.24 63.97,34.88 121.22,16.41 178.71,-14.09 0,-20.16 0,-40.33 0,-76.5 60.61,29.75 108.46,53.23 161.53,79.27 -28.15,37.86 -46.23,62.17 -74.81,100.6 -32.11,-38.28 -60.47,-72.09 -88.84,-105.9 -14.6,143.48 -50.34,173.66 -174.04,146.89 -67.15,67.57 -127.39,137.82 -66.94,240.14 42.96,72.7 130.45,112.59 208.02,98.15 12.93,111.22 -24.75,202.46 -100.73,276.53 -138.76,-92.24 -237.55,-205.43 -261.96,-374.65 21.78,-3.24 43.56,-6.47 51.93,-7.72 17.28,-36.01 30.83,-64.26 44.5,-92.76 -5.34,-3.03 -12.31,-9.78 -20.16,-11.03 -91.57,-14.55 -199.88,27.21 -264.23,-79.61 -2.65,-4.4 -16.89,-5.44 -24,-2.99 -156.11,53.79 -190.38,-78.33 -256.5,-169.93 82.8,25.15 163.92,103.36 248.34,-15.86 13.48,33.77 24.07,60.31 34.67,86.85 12.1,-7.88 24.19,-15.76 36.29,-23.64 -7.72,-37.84 -8.52,-104.33 -24.45,-108.18 -49.06,-11.85 -114.27,-32.48 -143.59,54.23 -95.62,-129.59 -157.52,15.24 -237.64,17.18 23.71,5.07 47.42,10.13 92.27,19.71 -108.6,80.96 -199.88,145.43 -331.45,100.52 93.09,68.67 190.92,70.58 294.67,54.18 -90.16,130.7 -212.08,63.74 -323.53,47.16 -11.92,35.24 -23.1,68.29 -34.28,101.33 -5.97,-1 -11.95,-2.01 -17.92,-3.02 -5.17,-22.57 -10.35,-45.14 -14.83,-64.71 -117.74,-22.42 -245.75,37.41 -339.14,-71.29 -4.87,-5.66 -21.98,-1.52 -33.31,-0.77 -53.07,3.51 -106.11,7.43 -161.29,11.36 -23.67,46 -52.6,102.24 -94.12,182.92 -64.81,-104.89 -115.71,-187.25 -150.98,-244.33 55.26,-50.77 98.75,-79.69 127.04,-119.44 37.7,-52.97 -5.47,-89.36 -43.06,-122.31 z m 1542.64,938.04 c 49.91,-63.14 99.82,-126.28 163.5,-206.83 -10.56,43.41 -12.87,74.4 -25.67,100.17 -16.22,32.68 -46.49,58.74 -60.76,91.92 -22.52,52.37 -49.48,31.52 -79.41,12.4 24.42,90.76 76.49,118.39 156.3,65 -10.35,115.45 -20.17,224.9 -29.99,334.36 -29.73,-15.78 -40.09,-32.08 -49.81,-48.76 -45.92,-78.81 -49.98,-178.48 -141.34,-236.41 -42.72,-27.09 4.17,-105.24 67.18,-111.85 z M 1808.67,97.0312 C 2010.19,1245.95 2210.02,2385.21 2411.61,3534.55 c 29.12,0 57.09,0.04 85.06,0 458.81,-0.79 917.73,3.91 1376.41,-4.41 281.54,-5.11 564.69,-9.91 834.98,-113.3 239.65,-91.68 402.63,-247.91 437.27,-508.35 24.45,-183.77 -22.59,-359.31 -99.69,-527.09 -92.82,-201.96 -258.57,-334.98 -443.74,-464.69 28.93,-17.59 49.05,-31.28 70.43,-42.59 245.18,-129.7 373.03,-389.2 338.47,-663.54 C 4980.56,970.48 4904.32,751.641 4752.66,561.352 4600.55,370.5 4391.66,261.039 4165.89,199.57 3962.15,144.102 3747.96,106.219 3537.34,100.84 2980.75,86.6211 2423.61,94.2109 1866.69,93.2812 c -14.09,-0.0312 -28.19,1.7579 -58.02,3.75"
         inkscape:connector-curvature="0"
         id="path14"
         style="fill:#222d5f;fill-opacity:1;fill-rule:nonzero;stroke:none" /><path
         d="m 7721.79,2562.35 c -49.74,-54.31 -90.93,-99.26 -128.54,-140.32 42.12,-18.55 106.23,-46.77 170.34,-75 8.87,5.75 17.73,11.5 26.59,17.25 -23.04,66.76 -46.09,133.51 -68.39,198.07 z M 5428.59,866.879 c 26.11,146.791 49.15,276.371 75.63,425.281 -35.82,-12.79 -77.09,-18.65 -78.39,-29.36 -15.13,-124.43 -84.7,-249.03 2.76,-395.921 z M 6856.2,2446.07 c 239.5,45.67 226.54,63.9 110.52,263.6 -37.91,-90.42 -75.2,-179.37 -110.52,-263.6 z M 5595.05,2087.96 c 92.67,34.53 174.03,64.85 263.14,98.06 -44.55,52.01 -75.42,88.04 -116.12,135.56 -33.62,-30.88 -70.8,-54.24 -92.29,-87.68 -23.13,-35.99 -31.56,-81.43 -54.73,-145.94 z m 830.51,608.4 c -8.81,1.68 -17.62,3.35 -26.43,5.02 -50.68,-115.19 -101.36,-230.39 -154.61,-351.42 77.02,25.85 132.34,44.41 181.04,60.75 0,87.98 0,186.82 0,285.65 z m 291.35,-16.69 c 0,104.22 0,209.77 0,315.31 -36.15,-21.73 -53.03,-46.64 -65.13,-73.69 -22.82,-50.97 -42.48,-103.35 -64.2,-154.82 -18.22,-43.18 -37.51,-85.9 -56.32,-128.82 7.81,-4.76 15.63,-9.53 23.45,-14.29 48.32,51.47 94.26,111.54 162.2,56.31 z m 1078.1,278.8 c -9.19,2.26 -18.37,4.53 -27.56,6.79 -14.55,-29.16 -30.48,-57.72 -43.36,-87.6 -25.51,-59.16 -49.92,-118.82 -73.65,-178.72 -15.45,-38.99 -28.9,-78.78 -43.24,-118.21 71.87,26.82 113.17,102.21 187.81,37.4 0,115.1 0,227.73 0,340.34 z m -1793.58,87.98 c -8.04,6.04 -16.07,12.08 -24.1,18.12 -17.34,-26.58 -36.44,-52.19 -51.56,-79.96 -19.92,-36.57 -27.54,-86.06 -56.82,-109.95 -54.76,-44.69 -70.54,-94.64 -59.21,-163.25 71.97,38.61 133.16,120.86 224.56,46.39 -11.51,101.1 -22.19,194.88 -32.87,288.65 z m 1458.93,-198.69 c 0,126.22 0,249.37 0,372.51 -32.83,-28.33 -49.15,-58.18 -61.46,-89.61 -22.67,-57.89 -41.99,-117.09 -64.57,-175.01 -20.15,-51.69 -42.81,-102.39 -64.36,-153.53 77.69,17.78 107.64,123.59 190.39,45.64 z m -90.48,-54.66 c -77.6,-85.12 -160.32,-164.24 -154.39,-297.4 75.06,-6.52 138.42,-12.02 214.03,-18.59 -16.56,35.84 -25.91,56.08 -35.17,76.13 71.83,37.31 64.22,111.53 -24.47,239.86 z m -714.4,-163.39 c -13.64,4.32 -27.29,8.64 -40.94,12.95 -60.24,-101.39 -120.47,-202.79 -180.7,-304.18 114.43,36.51 134.91,-48.15 174.56,-97.41 121.57,89.92 121.57,89.92 65.55,177.66 92.45,87.29 -18.71,141.73 -18.47,210.98 z M 6855.9,47.9102 c 54.1,-22.3321 77.95,-10.961 87.27,45.0703 31.59,190.0705 67.99,379.3395 101.73,569.0585 26.01,146.27 50.79,292.77 76.12,439.161 -9.7,6.07 -19.4,12.13 -29.1,18.2 -17.71,-20.99 -46.95,-39.79 -51.39,-63.29 C 6977.03,720.48 6916.88,384.199 6855.9,47.9102 z m 442.66,36.3007 c 90.71,-11.6093 83.46,50.8401 91.34,94.0391 41.23,226.148 80.19,452.711 119.19,679.25 20.26,117.691 38.98,235.64 58.4,353.48 -10.44,4.39 -20.87,8.79 -31.31,13.18 -19.33,-35.55 -48.56,-69.08 -56.28,-106.99 C 7447.82,959.551 7421.88,800.66 7394.34,642.129 7362.47,458.621 7331.28,275 7298.56,84.2109 z M 7429.14,1149.97 c -11.41,6.69 -22.82,13.37 -34.23,20.05 -19.93,-29.3 -51.91,-56.34 -57.89,-88.26 -48.23,-257.479 -91.93,-515.819 -136.18,-774.041 -14.28,-83.289 -26.05,-167.008 -38.68,-248.6682 77.01,-17.2422 83.47,26.25 91.29,71.7812 32.65,190.078 66.9,379.887 99.78,569.938 25.89,149.628 50.65,299.46 75.91,449.2 z M 6051.57,2525.76 c -37.75,63.12 -68.7,119.67 -105.59,172.02 -6.58,9.34 -45.03,9.74 -56.55,-0.07 -92.77,-79.04 -163.49,-173.26 -194.01,-310.05 35.7,21.43 58.89,35.34 86.57,51.96 34.38,-41.63 81.82,-78.59 99.7,-126.56 17.16,-46.07 3.7,-103.54 3.7,-147.08 63.53,20.03 118.21,37.27 174.2,54.93 4.66,19.59 13.15,55.19 26.93,113.04 -27.81,46.08 -68.29,113.16 -107.65,178.38 13.92,2.58 35.67,6.59 72.7,13.43 z M 5870.93,1290.65 c -68.35,-26.86 -156.12,50.89 -176.4,-65.96 -32.01,-184.39 -49.33,-372.042 -93.13,-553.42 -31.03,-128.469 39.35,-189.032 124.45,-272.29 48.74,299.61 95.2,585.122 145.08,891.67 z M 6242.29,125.988 c 3.36,12.653 7.95,25.84 10.31,39.434 45.16,260.32 90.02,520.699 135.03,781.047 18.6,107.541 40.77,214.651 53.81,322.851 3.37,27.88 -21.64,59.17 -33.62,88.89 -20.28,-16.31 -46.78,-28.86 -59.45,-49.79 -21.21,-35.05 -41.26,-74.04 -48.5,-113.8 -57.1,-313.6 -110.42,-627.882 -166.29,-941.71 -19.39,-108.922 -14.31,-116.93 108.71,-126.922 z m 572.84,-93.3669 c 61.96,370.1409 121.11,723.4689 180.97,1081.0489 -68.53,15.54 -128.39,29.11 -195.35,44.3 -63.58,-368.779 -125.92,-730.4 -190.12,-1102.7317 69.2,-7.6485 133.1,-14.7188 204.5,-22.6172 z m -268.09,25.6601 c 8.88,13.0079 11.44,15.129 11.89,17.6407 64.18,353.3401 128.83,706.5901 190.51,1060.3681 3.28,18.78 -13.16,49.33 -29.85,61.64 -42.82,31.62 -90.95,56.05 -146.46,88.99 C 6503.2,886.07 6434.77,493.82 6364.84,92.9414 6430.48,80.4492 6488.63,69.3906 6547.04,58.2812 z M 6364.28,1783.01 c -55.95,-19.12 -113.33,-23.16 -146.75,-53.55 -60.18,-54.72 -91.6,-59.05 -137.86,10.92 55.91,21.33 112.4,41.28 167.5,64.54 31.48,13.29 62.66,48.63 90.59,45.33 123.3,-14.55 85.9,84.64 107.71,141.44 7.02,18.27 5.76,41.83 17.08,55.93 29.73,37.05 64.28,70.23 107.84,116.56 -52.37,31.89 -93.62,57 -134.87,82.11 -3.22,-5.61 -6.43,-11.22 -9.64,-16.83 -25.47,38.8 -50.95,77.6 -90.65,138.08 -71.97,-120.4 -131.94,-220.74 -191.92,-321.09 7.99,-5.67 15.97,-11.35 23.96,-17.03 18.84,12.26 37.68,24.53 55.31,36 112.79,-115.14 107.06,-132.33 34,-192.33 -17.25,26.54 -34.36,52.86 -52.69,81.06 -31.08,-15.09 -61.26,-29.73 -107.3,-52.07 -20.6,95.17 -39.25,181.36 -59.58,275.31 -10.34,-23.1 -16.72,-37.34 -17.32,-38.68 -27.23,1.87 -47.23,7.84 -64.66,3.49 -37.78,-9.44 -76.01,-20.5 -110.87,-37.44 -83.96,-40.8 -169.48,-67.29 -262.55,-85.35 -51.75,-10.05 -88.68,-96.48 -132.3,-148.49 4.35,-6.16 8.7,-12.32 13.05,-18.48 75.08,39.14 150.03,100.48 225.87,9.62 55.74,64.45 61.39,63.73 131.03,-16.86 -103.83,-77.23 -157.37,-79.26 -220.73,-8.36 -183.95,-98.95 -213.38,-136.03 -184.49,-249.44 44.58,22.83 86.61,44.66 128.93,65.9 19.98,10.03 39.86,24.8 60.94,27.18 51.54,5.84 104.21,2.22 155.58,8.9 61.3,7.96 62.29,9.77 72.7,-60.42 -130.54,4.54 -136.71,0.7 -210.4,-131.16 91.52,34.89 335.49,13.8 388.85,-32.02 -73.38,-79.66 -168.37,-46.65 -242.16,-19.68 -83.79,30.63 -128.61,-1.75 -163.58,-55.87 -25.75,-39.84 -29.99,-94.82 -39.14,-143.92 -28.46,-152.78 -58.09,-305.509 -79.6,-459.318 -5.94,-42.492 14.88,-88.711 23.42,-133.222 10.21,1.589 20.42,3.171 30.63,4.761 36.51,214.059 73.02,428.119 114.17,669.339 59.62,7.96 146.74,19.59 251.88,33.62 0,-87.95 9.05,-164.15 -1.67,-237.46 -34.95,-239.241 -76.54,-477.53 -116.96,-715.952 -8.29,-48.879 -1.55,-83.226 60.22,-91.957 56.57,329.289 112.41,654.289 167.12,972.699 56.18,16.89 112.02,35.13 168.77,49.88 17.01,4.42 36.54,-0.89 54.91,-1.74 -9.09,-16.45 -19.46,-32.35 -26.94,-49.5 -9.96,-22.81 -21.5,-45.92 -25.75,-70.07 -56.92,-323.171 -113.51,-646.402 -166.92,-970.16 -3.73,-22.589 18.25,-49.41 28.28,-74.269 10.35,3.109 20.69,6.219 31.04,9.328 39.74,232.203 75.58,465.152 120.47,696.34 34.39,177.061 25.33,367.171 162.51,536.841 -98.47,13.11 -181.32,24.13 -288.3,38.36 42.94,45.49 75.32,79.79 109.55,116.04 29.15,-31.09 52.33,-55.8 77.75,-82.92 72.12,89.6 104.07,-30.11 178.66,-23.96 -28,58.71 -53.26,111.67 -77.65,162.79 55.75,44.45 22.29,100.52 2.93,157.23 z m 883.51,1819.9 c 271.69,12.75 531.59,-26.75 784.67,-115.73 74.39,-26.16 107,-56.77 88.5,-148.32 -66.09,-327.12 -119.44,-656.8 -179.33,-985.2 -16.75,-91.85 -64.58,-108.12 -158.93,-70.8 -149.14,58.98 -296.31,139.62 -451.61,163.31 -507.65,77.42 -873.51,-317.41 -902.01,-739.57 -13.62,-201.79 95.12,-352.63 262.42,-445.01 276.42,-152.64 563.78,-136.73 847.53,-8.68 39.29,17.73 75.16,43.71 115.28,58.79 61.28,23.03 105.78,-11.43 94.7,-75.66 C 7687.86,881.551 7625.2,527.32 7559.15,173.73 7554.69,149.84 7521.41,120.012 7496.1,113.219 7352.34,74.6289 7208.56,26.4219 7061.71,11.1914 6805.62,-15.3789 6548.63,6.83984 6296.8,62.1992 5754.17,181.469 5388.12,591.141 5313.01,1144.17 c -50.87,374.57 10.76,738.45 114.86,1092.13 177.88,604.34 561.52,1030.95 1155.25,1266.03 218.08,86.35 439.45,108.99 664.67,100.58"
         inkscape:connector-curvature="0"
         id="path16"
         style="fill:#222d5f;fill-opacity:1;fill-rule:nonzero;stroke:none" /><path
         d="m 1176.06,1599.71 c -142.76,110.17 -146.72,109.3 -237.447,-40.16 84.157,14.23 160.797,27.2 237.447,40.16 z m 31.4,1124.68 c -21.96,101.26 -42.11,194.12 -66.21,305.23 -33.41,-44.43 -53.41,-68.55 -70.66,-94.51 -27.17,-40.91 -43.74,-95.27 -80.699,-121.77 -53.371,-38.28 -62.453,-77.93 -50.86,-136.66 89.769,37 165.159,114.73 268.429,47.71 z M 694.879,2440.28 c -66.688,-96.91 -118.781,-172.62 -170.871,-248.33 88.804,7.94 142.668,38.74 229.5,-4.89 64.996,-32.65 175.336,24.95 276.002,44.4 -120.682,151.12 -185.608,146.81 -275.502,-18.04 -20.797,79.79 -37.629,144.38 -59.129,226.86 z m 47.902,-858.72 c -44.043,5 -88.234,8.96 -132.093,15.25 -70.247,10.07 -140.126,28.07 -210.454,29.65 -30.046,0.67 -60.828,-31.57 -91.277,-48.85 10.703,-18.85 21.723,-54.18 32.063,-53.98 93.484,1.79 115.777,-64.84 140.546,-133.4 8.516,-23.57 26.649,-43.66 40.387,-65.34 7.547,1.89 15.094,3.78 22.641,5.67 3.304,23.72 2.492,49.03 10.894,70.78 12.055,31.2 39.801,87.23 45.383,85.41 82.719,-27.08 90.914,63.16 141.91,94.81 z m 667.559,10.05 c -42.87,-6.65 -80.39,-14.01 -118.27,-17.98 -48.52,-5.08 -101.79,3.9 -145.15,-13.17 -108.48,-42.72 -214.846,-50.06 -326.982,-20.39 -17.489,4.63 -42.114,-17.72 -63.438,-27.59 2.09,-6.27 4.18,-12.54 6.27,-18.81 26.679,-2.59 53.363,-5.18 85.058,-8.25 -15.156,-22.65 -25.887,-38.67 -41.086,-61.39 139.516,38.83 255.868,33.47 391.528,4.04 61.16,-13.27 127.59,-2.25 191.63,-2.25 0.57,7.68 1.13,15.36 1.69,23.04 -25.43,13.92 -50.86,27.83 -76.29,41.74 70.9,-0.77 106.25,25.08 95.04,101.01 z M 681.949,148.789 c 11.621,-4.008 23.242,-8.027 34.863,-12.039 13.497,34.781 32.825,68.48 39.543,104.539 41.567,222.981 80.739,446.422 119.793,669.871 21.52,123.1 41.262,246.51 61.805,369.79 -11.5,4.31 -23,8.63 -34.5,12.94 -13.609,-35.09 -33.094,-69.08 -39.875,-105.44 C 822.004,965.461 782.867,742.02 743.812,518.582 722.297,395.469 702.512,272.059 681.949,148.789 z M 509.223,1275.37 c -10.25,6.31 -20.496,12.62 -30.743,18.93 -11.746,-20.26 -30.191,-39.28 -34.218,-60.98 C 397.008,978.75 351.754,723.809 306.336,468.898 287.371,362.461 269.281,255.871 250.793,149.352 c 7.289,-4.231 14.574,-8.454 21.863,-12.68 13.602,14.5 33.789,26.816 39.434,43.937 11.605,35.211 15.859,72.911 22.398,109.723 C 392.824,618.66 451,947.02 509.223,1275.37 z m -104.11,-1.18 c -10.203,6.76 -20.406,13.52 -30.609,20.28 -11.887,-20.06 -30.664,-38.85 -34.633,-60.37 C 276.199,889.031 214.211,543.648 152.797,198.172 c -3.137,-17.641 2.344,-36.813 3.812,-55.274 13.329,-2.109 26.657,-4.218 39.985,-6.328 82.133,376.578 136.066,759.032 208.519,1137.62 z m 632.947,2.55 c -11.2,6.2 -22.41,12.41 -33.62,18.62 -12.749,-26.98 -31.752,-52.76 -37.217,-81.14 C 936.855,1056.45 909.344,898.121 881.672,739.852 847.297,543.211 813.719,346.43 779.793,149.719 c 9.18,-4.789 18.359,-9.59 27.539,-14.379 12.898,19.469 33.344,37.469 37.484,58.648 28.633,146.41 54.114,293.442 80.133,440.364 37.914,214.089 75.431,428.248 113.111,642.388 z M 1016.68,155.219 c 10.13,-6.731 20.27,-13.457 30.4,-20.199 13.54,25.671 34.37,49.98 39.43,77.218 35.21,189.453 67.59,379.434 99.98,569.391 28.34,166.172 55.52,332.551 83.21,498.841 -8.53,4.41 -17.05,8.82 -25.58,13.23 -12.76,-17.06 -33.73,-32.66 -37.08,-51.4 C 1142.35,880.16 1079.73,517.648 1016.68,155.219 z M 938.102,2453.81 c 76.318,-64.62 152.748,-129.32 222.858,-188.68 21.25,48.08 33.39,105.05 49.68,106.26 34.23,2.55 70.65,-24.18 106.18,-38.88 3.2,4.34 6.41,8.69 9.62,13.04 -50.3,55.94 -100.59,111.88 -152.73,169.88 17.37,6.16 37.89,13.43 92.9,32.93 -65.2,53.04 -113.59,96.3 -166.7,132.67 -12.15,8.32 -43.83,-1.84 -60.94,-12.48 -93.525,-58.13 -177.837,-125.48 -210.349,-251.86 37.184,12.61 67.824,23 109.481,37.12 z M 616.941,143.859 c 7.215,25.129 14.551,44.141 18.047,63.832 59.27,333.989 119.024,667.899 175.953,1002.279 8.856,51.99 27.293,87.45 82.489,91.28 105.414,7.3 211.38,8.77 316.3,20.19 50.96,5.55 100.06,28.09 165.6,47.57 -156.55,15.88 -288.79,29.98 -421.182,42.48 -85.433,8.07 -184.019,-53.2 -200.398,-121.92 -31.203,-1.37 -62.223,-2.74 -99.352,-4.37 C 586.914,904.172 520.074,526.77 452.258,143.859 c 61.469,0 109.664,0 164.683,0 z M 1052.46,1828.9 c -12.09,-40.79 -19.7,-66.46 -30.46,-102.75 132.95,62.29 190.31,-77.91 296.51,-102.82 -14.29,110.77 53.23,70.79 105.36,60.15 -70.11,109.69 -104.57,252.3 -288.15,206.53 4,10.7 8,21.39 12,32.09 63.84,0 127.68,0 185.53,0 8.77,29.7 17.55,59.45 25.23,85.45 -29.72,79.16 -60.14,160.19 -81.83,217.96 -32.18,-14 -60.39,-34.14 -90.65,-37.96 -94.43,-11.93 -188.355,5.96 -279.246,-60.85 -42.137,-30.98 -155.461,-20.79 -196.676,15.71 -61.84,54.77 -98.082,32.58 -137.976,-2.07 -48.832,-42.43 -88.778,-95.09 -125.434,-135.46 79.394,-26.12 145.75,-47.95 228.621,-75.21 -49.41,-27.12 -73.434,-40.31 -95.566,-52.45 -108.477,79.43 -135.528,68.07 -190.528,-75.41 114.063,8.49 114.063,8.49 133.688,-35.1 -185.391,-32.85 -185.391,-32.85 -185.906,-92.96 167.773,-19.08 335.468,-38.15 525.211,-59.73 -9.114,63.77 -17.735,124.06 -27.665,193.54 69.446,6.8 139.485,13.66 217.937,21.34 z M 0,103.949 c 36.9492,209.199 74.0469,418.383 110.816,627.621 119.075,677.62 238.114,1355.25 356.981,2032.91 41.769,238.14 82.824,476.41 124.652,714.54 6.59,37.52 13.278,69.77 67.473,69.38 375.078,-2.7 750.188,-2.19 1125.288,-2.99 5.36,-0.02 10.72,-3.57 28.16,-9.75 -19.73,-118.14 -38.89,-238.8 -60.14,-359.1 C 1599.04,2303.52 1444.41,1430.55 1289.98,557.551 1266.42,424.352 1245.79,290.539 1217.51,158.352 1212.38,134.398 1176.83,99.4805 1154.94,99.1914 779.883,94.3086 404.77,94.0312 29.6641,93.2109 21.7812,93.1914 13.8867,98.75 0,103.949"
         inkscape:connector-curvature="0"
         id="path18"
         style="fill:#222d5f;fill-opacity:1;fill-rule:nonzero;stroke:none" /><path
         d="m 2571.56,1955.82 c 46.6,-13.37 93.2,-26.74 149.77,-42.97 8.94,4.7 43.55,33.93 54.43,26.82 78.85,-51.47 165.26,-43.64 251.64,-47.38 15.69,-0.68 30.07,-31.73 45.06,-48.76 -19.67,-7.16 -39.37,-20.55 -58.99,-20.45 -106.56,0.55 -214.35,-4.21 -319.12,10.87 -51.28,7.38 -96.93,53.81 -145.13,82.56 7.44,13.11 14.89,26.21 22.34,39.31"
         inkscape:connector-curvature="0"
         id="path20"
         style="fill:#222d5f;fill-opacity:1;fill-rule:nonzero;stroke:none" /><path
         d="m 6065.68,1783.68 c 1.88,-116.13 -74.56,-100.06 -159.5,-95.8 23.91,16.45 37.67,25.91 53.69,36.93 -25.3,23.9 -54.65,44.36 -73.24,72.05 -10.35,15.42 -2.79,42.87 -3.31,64.89 22.52,-6.44 53.71,-5.69 66.07,-20.57 54.04,-65.04 52.05,-66.69 116.29,-57.5"
         inkscape:connector-curvature="0"
         id="path22"
         style="fill:#222d5f;fill-opacity:1;fill-rule:nonzero;stroke:none" /><path
         d="m 797.645,1979.95 c 43.339,11.16 80.929,25.87 119.417,28.81 22.461,1.71 46.727,-14.56 69.528,-24.27 38.21,-16.27 75.89,-33.77 141.65,-63.23 -47.05,-20.38 -83.14,-49.03 -98.56,-40.47 -74.559,41.41 -194.192,-9.74 -232.035,99.16"
         inkscape:connector-curvature="0"
         id="path24"
         style="fill:#222d5f;fill-opacity:1;fill-rule:nonzero;stroke:none" /></g></g></svg>